<svg id="svg" version="1.1" xmlns="http://www.w3.org/2000/svg" xmlns:xlink="http://www.w3.org/1999/xlink" width="400" height="225" viewBox="0, 0, 400,225"><g id="svgg"><path id="path0" d="M153.167 4.917 C 152.754 5.136,151.442 5.776,150.250 6.338 C 146.030 8.331,144.740 8.951,144.042 9.322 C 143.881 9.407,143.112 9.774,142.333 10.138 C 141.086 10.721,139.444 11.507,133.417 14.411 C 132.592 14.808,131.017 15.562,129.917 16.085 C 128.817 16.609,127.054 17.452,126.000 17.958 C 124.946 18.465,123.183 19.310,122.083 19.836 C 120.983 20.363,119.071 21.281,117.833 21.877 C 116.596 22.472,114.796 23.336,113.833 23.796 C 112.284 24.536,110.025 25.616,106.250 27.422 C 105.608 27.728,103.940 28.528,102.542 29.198 L 100.001 30.417 100.001 125.542 L 100.000 220.667 128.500 220.667 L 157.000 220.667 157.008 168.542 C 157.013 139.314,157.085 114.952,157.171 113.083 C 157.405 108.013,157.868 104.062,158.732 99.750 C 159.133 97.750,159.258 97.222,159.717 95.583 C 160.553 92.601,161.228 90.580,161.824 89.270 C 162.013 88.856,162.167 88.454,162.167 88.375 C 162.167 87.878,165.515 81.555,165.984 81.167 C 166.039 81.121,166.361 80.659,166.700 80.141 C 168.285 77.714,171.749 73.983,174.417 71.827 C 175.150 71.235,175.787 70.710,175.833 70.661 C 175.879 70.612,176.329 70.315,176.833 70.000 C 177.338 69.685,177.787 69.381,177.833 69.324 C 177.948 69.183,179.637 68.120,180.250 67.804 C 182.230 66.783,183.192 66.310,183.917 66.000 C 186.209 65.020,189.140 64.052,191.250 63.580 C 191.892 63.436,192.717 63.248,193.083 63.162 C 193.711 63.014,194.998 62.814,197.500 62.474 C 199.427 62.212,206.936 62.112,208.833 62.323 C 211.056 62.571,213.746 62.970,214.500 63.164 C 217.432 63.918,218.621 64.242,218.833 64.345 C 218.971 64.412,219.646 64.672,220.333 64.924 C 221.490 65.348,223.514 66.278,224.500 66.839 C 225.511 67.414,226.590 68.081,226.667 68.178 C 226.713 68.236,227.088 68.493,227.500 68.750 C 227.912 69.007,228.287 69.263,228.333 69.321 C 228.379 69.378,228.754 69.684,229.167 69.999 C 230.121 70.730,232.722 73.329,233.587 74.417 C 233.952 74.875,234.291 75.287,234.342 75.333 C 234.392 75.379,234.692 75.792,235.009 76.250 C 235.325 76.708,235.626 77.121,235.678 77.167 C 235.729 77.212,236.149 77.887,236.609 78.667 C 238.538 81.929,240.402 86.476,241.256 90.000 C 241.379 90.504,241.560 91.217,241.660 91.583 C 241.843 92.259,242.262 94.298,242.498 95.667 C 242.812 97.487,243.165 100.457,243.499 104.083 C 243.609 105.278,243.667 125.872,243.667 163.191 C 243.667 208.860,243.709 220.479,243.875 220.537 C 243.990 220.577,256.796 220.604,272.333 220.597 L 300.583 220.583 300.583 157.083 C 300.583 92.469,300.586 92.739,300.004 86.667 C 299.588 82.328,298.883 77.273,298.343 74.750 C 298.245 74.292,298.087 73.467,297.993 72.917 C 297.899 72.367,297.758 71.692,297.679 71.417 C 297.601 71.142,297.409 70.317,297.254 69.583 C 297.099 68.850,296.912 68.063,296.839 67.833 C 296.765 67.604,296.625 67.117,296.527 66.750 C 296.044 64.942,295.787 64.053,295.660 63.750 C 295.583 63.567,295.469 63.154,295.407 62.833 C 295.345 62.512,295.241 62.175,295.175 62.083 C 295.109 61.992,294.924 61.467,294.765 60.917 C 294.605 60.367,294.405 59.748,294.321 59.542 C 293.996 58.751,293.859 58.390,293.579 57.583 C 293.420 57.125,293.224 56.679,293.145 56.592 C 293.065 56.505,293.000 56.338,293.000 56.221 C 293.000 56.034,292.806 55.562,291.917 53.583 C 291.384 52.399,289.294 48.186,288.897 47.500 C 287.186 44.535,285.075 41.229,284.371 40.412 C 284.290 40.318,284.081 40.018,283.907 39.746 C 283.733 39.473,283.551 39.212,283.501 39.167 C 283.452 39.121,283.038 38.610,282.581 38.031 C 280.529 35.432,277.374 32.072,274.821 29.766 C 274.324 29.317,273.654 28.713,273.333 28.424 C 272.702 27.857,270.301 25.927,269.651 25.465 C 269.430 25.309,269.100 25.065,268.917 24.924 C 268.733 24.783,268.283 24.443,267.917 24.169 C 267.550 23.895,267.175 23.611,267.083 23.538 C 266.589 23.143,262.823 20.833,262.675 20.833 C 262.579 20.833,262.500 20.775,262.500 20.703 C 262.500 20.632,262.294 20.486,262.042 20.378 C 261.790 20.271,261.246 19.981,260.833 19.734 C 260.049 19.263,257.394 17.918,256.250 17.412 C 255.883 17.249,255.123 16.903,254.560 16.642 C 253.996 16.380,253.430 16.167,253.301 16.167 C 253.172 16.167,252.995 16.099,252.908 16.015 C 252.769 15.882,249.260 14.560,247.917 14.135 C 245.771 13.456,241.480 12.311,239.906 11.998 C 239.362 11.890,238.617 11.735,238.250 11.655 C 237.653 11.524,236.517 11.342,233.000 10.814 C 229.957 10.358,226.267 10.132,220.500 10.049 C 212.890 9.940,209.536 10.165,202.833 11.239 C 201.963 11.378,200.912 11.569,200.500 11.663 C 200.088 11.758,199.312 11.912,198.776 12.007 C 198.241 12.101,197.378 12.296,196.860 12.438 C 196.341 12.581,195.504 12.799,195.000 12.922 C 194.496 13.045,193.821 13.222,193.500 13.315 C 193.179 13.409,192.504 13.595,192.000 13.729 C 190.965 14.004,188.090 14.930,187.583 15.152 C 187.400 15.232,186.875 15.424,186.417 15.579 C 185.958 15.733,185.433 15.926,185.250 16.008 C 185.067 16.090,184.317 16.386,183.583 16.667 C 182.850 16.948,181.950 17.317,181.583 17.488 C 181.217 17.659,180.617 17.928,180.250 18.085 C 179.316 18.487,175.101 20.557,175.000 20.664 C 174.954 20.713,174.504 20.971,174.000 21.239 C 173.008 21.765,170.564 23.265,170.267 23.531 C 170.166 23.621,169.633 23.989,169.083 24.348 C 167.133 25.625,166.749 25.884,166.667 25.984 C 166.621 26.039,166.133 26.421,165.583 26.834 C 165.033 27.246,164.496 27.658,164.389 27.750 C 164.283 27.842,163.950 28.104,163.649 28.333 C 163.349 28.563,162.947 28.900,162.756 29.083 C 162.566 29.267,161.962 29.792,161.414 30.250 C 160.525 30.994,156.771 34.715,155.125 36.485 L 154.500 37.157 154.500 20.829 C 154.500 2.406,154.645 4.132,153.167 4.917 " stroke="none" fill="#2c344c" fill-rule="evenodd"></path><path id="path1" d="" stroke="none" fill="#30344c" fill-rule="evenodd"></path><path id="path2" d="" stroke="none" fill="#30344c" fill-rule="evenodd"></path><path id="path3" d="" stroke="none" fill="#30344c" fill-rule="evenodd"></path><path id="path4" d="" stroke="none" fill="#30344c" fill-rule="evenodd"></path><path id="path5" d="" stroke="none" fill="#30344c" fill-rule="evenodd"></path><path id="path6" d="" stroke="none" fill="#30344c" fill-rule="evenodd"></path><path id="path7" d="" stroke="none" fill="#30344c" fill-rule="evenodd"></path><path id="path8" d="" stroke="none" fill="#30344c" fill-rule="evenodd"></path></g></svg>